<?xml version="1.0" encoding="utf-8"?>
<!-- Generator: Adobe Illustrator 19.1.0, SVG Export Plug-In . SVG Version: 6.00 Build 0)  -->
<svg version="1.1" id="イラスト" xmlns="http://www.w3.org/2000/svg" xmlns:xlink="http://www.w3.org/1999/xlink" x="0px"
	 y="0px" width="129.9px" height="163.5px" viewBox="0 0 129.9 163.5" style="enable-background:new 0 0 129.9 163.5;"
	 xml:space="preserve">
<style type="text/css">
	.st0{fill:#42484C;}
	.st1{fill:#1B489D;}
	.st2{fill:#1C2D70;}
	.st3{fill:#9AA6AC;}
	.st4{fill:#187FC4;}
	.st5{fill:none;}
	.st6{fill:#A6B2B6;}
	.st7{fill:#3389CA;}
	.st8{fill:#E8ECEE;}
	.st9{fill:#BCC5CA;}
	.st10{fill:#CAD2D9;}
	.st11{fill:#D6DDE1;}
	.st12{clip-path:url(#SVGID_2_);}
	.st13{fill:#579ED7;}
</style>
<rect x="101.1" y="116.6" class="st0" width="6.8" height="4.7"/>
<path class="st1" d="M120.5,114.5c0-3.8-3.1-6.8-6.8-6.8s-6.8,3.1-6.8,6.8v9c0,3.8,3.1,6.8,6.8,6.8s6.8-3.1,6.8-6.8
	c0-1.7-0.6-3.3-1.7-4.5C119.9,117.8,120.5,116.2,120.5,114.5z"/>
<circle class="st2" cx="113.7" cy="123.5" r="2.6"/>
<g>
	<path class="st3" d="M120.1,123.3c1.1-0.1,2-0.9,2.2-2c1.4-7.1,0.7-14.3-2.1-20.9c-2.8-6.6-7.5-12.2-13.6-16.1
		c-1.2-0.7-2.7-0.4-3.4,0.8s-0.4,2.7,0.8,3.4c5.2,3.3,9.2,8.1,11.7,13.8c2.4,5.7,3,11.9,1.8,18c-0.3,1.4,0.6,2.7,2,2.9
		C119.6,123.3,119.9,123.3,120.1,123.3z"/>
	<path class="st4" d="M107.1,127c0.4-3,1.9-5.8,4.3-7.6c2.4-1.9,5.4-2.7,8.4-2.3c3,0.4,5.7,1.9,7.6,4.3c1.9,2.4,2.7,5.4,2.3,8.5
		c-0.3,2.7-1.6,5.1-3.6,7c-0.6,0.5-1.3,0.9-2.1,0.9c-0.1,0-0.2,0-0.3,0c-1,0-1.9-0.4-2.6-1.1c-0.6-0.7-1-1.6-0.9-2.6
		c0-1,0.4-1.8,1.1-2.5c0.5-0.5,1.2-1.4,1.4-2.6c0.1-1.1-0.2-2.3-0.9-3.2c-0.7-0.9-1.7-1.5-2.9-1.6c-1.1-0.1-2.3,0.2-3.2,0.9
		c-0.9,0.7-1.5,1.7-1.6,2.9c-0.2,1.3,0.3,2.3,0.7,2.9c1.1,1.6,0.6,3.9-1,4.9c-0.8,0.5-1.7,0.7-2.7,0.5c-0.9-0.2-1.7-0.7-2.3-1.5
		C107.4,132.4,106.8,129.7,107.1,127z"/>
	<g>
		<path class="st5" d="M104.9,89.2l2.8-4.2c1.7,1.2,3.3,2.5,4.7,3.9l-3.5,3.5C107.6,91.3,106.3,90.2,104.9,89.2z"/>
		<path class="st5" d="M122.9,111.5l-5,0.3c-0.1-1.7-0.4-3.4-0.8-5l4.8-1.3C122.4,107.5,122.7,109.5,122.9,111.5z"/>
		<path class="st5" d="M103.2,85.1c0.7-1,1.9-1.4,3-1l-2.6,4.1C102.7,87.4,102.5,86.1,103.2,85.1z"/>
		<path class="st5" d="M122.5,120l-4.9-0.9c0.3-1.7,0.4-3.4,0.4-5.1l5-0.1C123,116,122.9,118,122.5,120z"/>
		<path class="st5" d="M120.1,123.3c-0.2,0-0.5,0-0.7,0c-1.2-0.2-2-1.3-2-2.4l4.8,1C121.8,122.6,121,123.2,120.1,123.3z"/>
		<path class="st5" d="M110.3,94l3.7-3.4c1.3,1.5,2.6,3.1,3.7,4.9l-4.3,2.6C112.5,96.7,111.5,95.3,110.3,94z"/>
		<path class="st5" d="M118.9,97.6c0.5,0.9,0.9,1.8,1.3,2.8c0.4,0.9,0.7,1.9,1.1,2.8l-4.8,1.5c-0.3-0.8-0.6-1.6-0.9-2.4
			c-0.3-0.8-0.7-1.6-1.1-2.3L118.9,97.6z"/>
		<path class="st6" d="M103.9,88.5c-0.1-0.1-0.3-0.2-0.4-0.3l2.6-4.1c0.2,0.1,0.3,0.1,0.4,0.2c0.4,0.2,0.7,0.5,1,0.7l-2.8,4.2
			C104.6,89,104.3,88.8,103.9,88.5z"/>
		<path class="st6" d="M121.9,105.5l-4.8,1.3c-0.2-0.7-0.4-1.4-0.6-2.1l4.8-1.5C121.5,104,121.7,104.7,121.9,105.5z"/>
		<path class="st6" d="M123,113.9l-5,0.1c0-0.7,0-1.5-0.1-2.2l5-0.3C123,112.3,123,113.1,123,113.9z"/>
		<path class="st6" d="M113.4,98.1l4.3-2.6c0.4,0.7,0.8,1.4,1.2,2.1l-4.4,2.4C114.1,99.4,113.8,98.7,113.4,98.1z"/>
		<path class="st6" d="M108.8,92.4l3.5-3.5c0.6,0.6,1.1,1.1,1.7,1.7l-3.7,3.4C109.9,93.5,109.4,93,108.8,92.4z"/>
		<path class="st6" d="M122.3,121.3c0,0.2-0.1,0.3-0.1,0.5l-4.8-1c0-0.2,0-0.3,0-0.5c0.1-0.4,0.1-0.8,0.2-1.1l4.9,0.9
			C122.4,120.5,122.4,120.9,122.3,121.3z"/>
	</g>
	<path class="st4" d="M115.9,120.2c0.2-2,2-3.3,4-3.1c3,0.4,5.7,1.9,7.6,4.3c1.9,2.4,2.7,5.4,2.3,8.5c-0.3,2.7-1.6,5.1-3.6,7
		c-0.6,0.5-1.3,0.9-2.1,0.9c-0.1,0-0.2,0-0.3,0c-1,0-1.9-0.4-2.6-1.1c-0.6-0.7-1-1.6-0.9-2.6c0-1,0.4-1.8,1.1-2.5
		c0.5-0.5,1.2-1.4,1.4-2.6c0.1-1.1-0.2-2.3-0.9-3.2c-0.7-0.9-1.7-1.5-2.9-1.6C117,123.9,115.7,122.1,115.9,120.2z"/>
</g>
<circle class="st2" cx="113.7" cy="114.5" r="2.6"/>
<g>
	<path class="st1" d="M32.6,54.4h-0.4c-4.4,0-7.9-3.6-7.9-7.9v-0.6c0-4.4,3.6-7.9,7.9-7.9h0.4V54.4z"/>
	<path class="st1" d="M97.7,38h0.4c4.4,0,7.9,3.6,7.9,7.9v0.6c0,4.4-3.6,7.9-7.9,7.9h-0.4V38z"/>
</g>
<rect x="39.6" y="136.4" class="st0" width="14.8" height="20.6"/>
<rect x="75" y="136.4" class="st0" width="14.8" height="20.6"/>
<g>
	<path class="st4" d="M33,163.5c0-7.7,6.2-14,13.9-14h0c7.7,0,13.9,6.2,13.9,14H33z"/>
	<path class="st4" d="M68.5,163.5c0-7.7,6.2-14,13.9-14h0c7.7,0,13.9,6.2,13.9,14H68.5z"/>
</g>
<rect x="45.4" y="66" class="st0" width="37.2" height="7.8"/>
<rect x="63.2" y="8.9" class="st0" width="3.9" height="13.7"/>
<circle class="st7" cx="65.2" cy="7.8" r="7.8"/>
<path class="st8" d="M94,68.6H36.3c-2.4,0-4.4-2-4.4-4.4V24.9c0-2.4,2-4.4,4.4-4.4H94c2.4,0,4.4,2,4.4,4.4v39.3
	C98.4,66.6,96.4,68.6,94,68.6z"/>
<path class="st3" d="M9.8,123.3c-1.1-0.1-2-0.9-2.2-2c-1.4-7.1-0.7-14.3,2.1-20.9c2.8-6.6,7.5-12.2,13.6-16.1
	c1.2-0.7,2.7-0.4,3.4,0.8c0.7,1.2,0.4,2.7-0.8,3.4c-5.2,3.3-9.2,8.1-11.7,13.8c-2.4,5.7-3,11.9-1.8,18c0.3,1.4-0.6,2.7-2,2.9
	C10.3,123.3,10.1,123.3,9.8,123.3z"/>
<path class="st4" d="M22.8,127c-0.4-3-1.9-5.8-4.3-7.6c-2.4-1.9-5.4-2.7-8.4-2.3c-3,0.4-5.7,1.9-7.6,4.3c-1.9,2.4-2.7,5.4-2.3,8.5
	c0.3,2.7,1.6,5.1,3.6,7c0.6,0.5,1.3,0.9,2.1,0.9c0.1,0,0.2,0,0.3,0c1,0,1.9-0.4,2.6-1.1c0.6-0.7,1-1.6,0.9-2.6c0-1-0.4-1.8-1.1-2.5
	c-0.5-0.5-1.2-1.4-1.4-2.6c-0.1-1.1,0.2-2.3,0.9-3.2c0.7-0.9,1.7-1.5,2.9-1.6c1.1-0.1,2.3,0.2,3.2,0.9c0.9,0.7,1.5,1.7,1.6,2.9
	c0.2,1.3-0.3,2.3-0.7,2.9c-1.1,1.6-0.6,3.9,1,4.9c0.8,0.5,1.7,0.7,2.7,0.5c0.9-0.2,1.7-0.7,2.3-1.5C22.5,132.4,23.2,129.7,22.8,127z
	"/>
<g>
	<path class="st5" d="M25,89.2l-2.8-4.2c-1.7,1.2-3.3,2.5-4.7,3.9l3.5,3.5C22.3,91.3,23.6,90.2,25,89.2z"/>
	<path class="st5" d="M7,111.5l5,0.3c0.1-1.7,0.4-3.4,0.8-5L8,105.5C7.5,107.5,7.2,109.5,7,111.5z"/>
	<path class="st5" d="M26.7,85.1c-0.7-1-1.9-1.4-3-1l2.6,4.1C27.2,87.4,27.4,86.1,26.7,85.1z"/>
	<path class="st5" d="M7.4,120l4.9-0.9c-0.3-1.7-0.4-3.4-0.4-5.1l-5-0.1C6.9,116,7.1,118,7.4,120z"/>
	<path class="st5" d="M9.8,123.3c0.2,0,0.5,0,0.7,0c1.2-0.2,2-1.3,2-2.4l-4.8,1C8.1,122.6,8.9,123.2,9.8,123.3z"/>
	<path class="st5" d="M19.6,94l-3.7-3.4c-1.3,1.5-2.6,3.1-3.7,4.9l4.3,2.6C17.4,96.7,18.5,95.3,19.6,94z"/>
	<path class="st5" d="M11.1,97.6c-0.5,0.9-0.9,1.8-1.3,2.8c-0.4,0.9-0.7,1.9-1.1,2.8l4.8,1.5c0.3-0.8,0.6-1.6,0.9-2.4
		c0.3-0.8,0.7-1.6,1.1-2.3L11.1,97.6z"/>
	<path class="st6" d="M26,88.5c0.1-0.1,0.3-0.2,0.4-0.3l-2.6-4.1c-0.2,0.1-0.3,0.1-0.4,0.2c-0.4,0.2-0.7,0.5-1,0.7l2.8,4.2
		C25.3,89,25.7,88.8,26,88.5z"/>
	<path class="st6" d="M8,105.5l4.8,1.3c0.2-0.7,0.4-1.4,0.6-2.1l-4.8-1.5C8.4,104,8.2,104.7,8,105.5z"/>
	<path class="st6" d="M6.9,113.9l5,0.1c0-0.7,0-1.5,0.1-2.2l-5-0.3C7,112.3,6.9,113.1,6.9,113.9z"/>
	<path class="st6" d="M16.5,98.1l-4.3-2.6c-0.4,0.7-0.8,1.4-1.2,2.1l4.4,2.4C15.8,99.4,16.1,98.7,16.5,98.1z"/>
	<path class="st6" d="M21.1,92.4l-3.5-3.5c-0.6,0.6-1.1,1.1-1.7,1.7l3.7,3.4C20.1,93.5,20.6,93,21.1,92.4z"/>
	<path class="st6" d="M7.6,121.3c0,0.2,0.1,0.3,0.1,0.5l4.8-1c0-0.2,0-0.3,0-0.5c-0.1-0.4-0.1-0.8-0.2-1.1L7.4,120
		C7.5,120.5,7.5,120.9,7.6,121.3z"/>
</g>
<g>
	<path class="st0" d="M24.7,100.7h-3c-0.9,0-1.7-0.7-1.7-1.7V81.5c0-0.9,0.7-1.7,1.7-1.7h3V100.7z"/>
	<path class="st0" d="M107.6,100.7h-3V79.8h3c0.9,0,1.7,0.7,1.7,1.7v17.6C109.3,100,108.5,100.7,107.6,100.7z"/>
</g>
<path class="st8" d="M100.7,141.9H28.6c-2.4,0-4.4-2-4.4-4.4V76.6c0-2.4,2-4.4,4.4-4.4h72.1c2.4,0,4.4,2,4.4,4.4v60.9
	C105.1,140,103.2,141.9,100.7,141.9z"/>
<g>
	<circle class="st9" cx="42.5" cy="123.1" r="2.7"/>
	<path class="st10" d="M40.6,121.2c-1,1-1,2.7,0,3.8l3.8-3.8C43.3,120.2,41.6,120.2,40.6,121.2z"/>
	<circle class="st9" cx="86.9" cy="123.1" r="2.7"/>
	<path class="st10" d="M85,121.2c-1,1-1,2.7,0,3.8l3.8-3.8C87.7,120.2,86,120.2,85,121.2z"/>
</g>
<path class="st11" d="M94,131.3H35.4c-0.6,0-1-0.5-1-1V72.2h2.1v57h56.5v-57H95v58.1C95,130.8,94.5,131.3,94,131.3z"/>
<g>
	<path class="st3" d="M54.4,83.5h-6c-0.2,0-0.4,0.2-0.4,0.4V85c0,0.2,0.2,0.4,0.4,0.4h2v7.3c0,0.2,0.2,0.4,0.4,0.4h1.3
		c0.2,0,0.4-0.2,0.4-0.4v-7.3h2c0.2,0,0.4-0.2,0.4-0.4v-1.2C54.8,83.6,54.6,83.5,54.4,83.5z"/>
	<path class="st3" d="M63.7,83.6c-0.1-0.1-0.2-0.2-0.3-0.2H62c-0.1,0-0.3,0.1-0.3,0.2l-1.5,3.2l-1.5-3.2c-0.1-0.1-0.2-0.2-0.3-0.2
		H57c-0.1,0-0.2,0.1-0.3,0.2c-0.1,0.1-0.1,0.2,0,0.3l2.5,5.1v3.6c0,0.2,0.2,0.4,0.4,0.4h1.2c0.2,0,0.4-0.2,0.4-0.4l0-3.5l2.6-5.2
		C63.8,83.9,63.8,83.8,63.7,83.6z"/>
	<path class="st3" d="M71.8,84.2c-0.4-0.3-0.7-0.5-1.1-0.6c-0.3-0.1-0.7-0.1-1-0.1h-3.1c-0.2,0-0.4,0.2-0.4,0.4v8.9
		c0,0.2,0.2,0.4,0.4,0.4h1.3c0.2,0,0.4-0.2,0.4-0.4v-3.1h1.6c1,0,1.8-0.4,2.3-1c0.5-0.6,0.8-1.3,0.8-2c0-0.5-0.1-1-0.3-1.4
		C72.4,84.7,72.1,84.4,71.8,84.2z M70.9,86.5c0,0.3-0.1,0.5-0.3,0.8c-0.2,0.2-0.4,0.3-0.8,0.3h-1.6v-2.2h1.6c0.3,0,0.5,0.1,0.7,0.2
		c0.1,0.1,0.2,0.2,0.3,0.3C70.8,86.1,70.9,86.3,70.9,86.5z"/>
	<path class="st3" d="M80.3,85.5c0.2,0,0.4-0.2,0.4-0.4v-1.3c0-0.2-0.2-0.4-0.4-0.4h-5.5c-0.2,0-0.4,0.2-0.4,0.4v8.9
		c0,0.2,0.2,0.4,0.4,0.4h5.5c0.2,0,0.4-0.2,0.4-0.4v-1.3c0-0.2-0.2-0.4-0.4-0.4h-3.8v-1.9h3.2c0.2,0,0.4-0.2,0.4-0.4v-1.2
		c0-0.2-0.2-0.4-0.4-0.4h-3.2v-1.8H80.3z"/>
</g>
<g>
	<path class="st1" d="M60,108.3c0.6-0.5,1-1.1,1.4-1.8c0.4-0.8,0.7-1.7,0.7-2.7c0-2-0.7-3.6-1.9-4.9c-1.2-1.3-2.8-2-4.8-2
		c-1.9,0-3.5,0.7-4.7,2c-1.3,1.3-1.9,3-2,4.9c0,1,0.2,2,0.7,2.7c0.3,0.7,0.8,1.3,1.3,1.8c-1.6,1.3-2.4,3-2.5,5.1
		c0,2.1,0.7,3.9,2.1,5.1c1.3,1.3,3,2,4.9,2h0c0,0,0,0,0,0c2,0,3.7-0.7,5-2c1.3-1.3,2-3,2.1-5.2C62.5,111.3,61.6,109.6,60,108.3z
		 M57.4,105.9c-0.6,0.5-1.2,0.8-1.9,0.8c-0.7,0-1.3-0.2-1.9-0.8c-0.6-0.5-0.8-1.2-0.9-2.1c0-1,0.3-1.7,0.8-2.2
		c0.6-0.5,1.2-0.7,1.9-0.7c0.8,0,1.4,0.2,2,0.7c0.5,0.5,0.8,1.2,0.8,2.2C58.2,104.7,57.9,105.4,57.4,105.9z M53.2,111.1
		c0.6-0.6,1.3-0.9,2.2-0.9c0.9,0,1.6,0.3,2.2,0.9c0.6,0.6,0.9,1.4,0.9,2.3c0,0.9-0.3,1.7-1,2.3c-0.6,0.6-1.3,0.9-2.2,0.9
		c-0.9,0-1.6-0.3-2.2-0.9c-0.6-0.6-1-1.3-1-2.3C52.3,112.5,52.6,111.7,53.2,111.1z"/>
	<path class="st1" d="M78.8,106.6c-1.1-1.1-2.4-1.6-4.1-1.6c-1.1,0-2.4,0.2-3.7,0.6V104c0-2.1,0.9-3.1,2.7-3.1
		c1.3,0,2.1,0.6,2.5,1.7c0.1,0.1,0.2,0.2,0.3,0.2h3.2c0.1,0,0.2,0,0.3-0.1c0.1-0.1,0.1-0.2,0.1-0.3c-0.3-1.7-1.1-3.1-2.3-4
		c-1.2-0.9-2.6-1.4-4.2-1.4c-1.7,0-3.3,0.6-4.5,1.8c-1.3,1.2-2,2.9-2.1,5.1v10c0,2.2,0.7,3.9,2.1,5.1c1.3,1.2,2.8,1.8,4.5,1.8
		c0,0,0,0,0,0s0,0,0,0c1.8,0,3.3-0.6,4.6-1.8c1.3-1.2,2-2.9,2-5.1v-2.1C80.4,109.4,79.9,107.7,78.8,106.6z M71.1,111.7
		c0-2.1,0.9-3.1,2.7-3.1c1.8,0,2.7,1,2.7,3.1v1.8c-0.1,2.1-0.9,3.1-2.7,3.1c-1.8,0-2.7-1-2.7-3.1V111.7z"/>
</g>
<g>
	<path class="st3" d="M42.3,37.5c-0.4,0-0.8-0.2-1.1-0.5c-0.6-0.6-0.6-1.7,0-2.3l3.3-3.3c0.6-0.6,1.7-0.6,2.3,0
		c0.6,0.6,0.6,1.7,0,2.3L43.4,37C43.1,37.3,42.7,37.5,42.3,37.5z"/>
	<path class="st3" d="M88,37.5c-0.4,0-0.8-0.2-1.1-0.5l-3.3-3.3c-0.6-0.6-0.6-1.7,0-2.3c0.6-0.6,1.6-0.6,2.3,0l3.3,3.3
		c0.6,0.6,0.6,1.7,0,2.3C88.9,37.3,88.5,37.5,88,37.5z"/>
</g>
<g>
	<defs>
		<path id="SVGID_1_" d="M94,68.9H36.3c-2.4,0-4.4-2-4.4-4.4V25.2c0-2.4,2-4.4,4.4-4.4H94c2.4,0,4.4,2,4.4,4.4v39.3
			C98.4,66.9,96.4,68.9,94,68.9z"/>
	</defs>
	<clipPath id="SVGID_2_">
		<use xlink:href="#SVGID_1_"  style="overflow:visible;"/>
	</clipPath>
	<g class="st12">
		<rect x="49.3" y="20.8" class="st11" width="2.1" height="48.1"/>
		<rect x="78.9" y="20.8" class="st11" width="2.1" height="48.1"/>
	</g>
</g>
<circle class="st0" cx="50.4" cy="43" r="3.9"/>
<circle class="st0" cx="79.9" cy="43" r="3.9"/>
<path class="st3" d="M72.9,59.7H58c-0.5,0-1-0.3-1.3-0.7c-0.3-0.4-0.3-1-0.1-1.5l4.4-9.1c0.4-0.8,1.3-1.1,2-0.7
	c0.8,0.4,1.1,1.3,0.7,2l-3.3,6.9h10l-0.9-2.3c-0.4-0.8-0.1-1.7,0.7-2.1c0.8-0.4,1.7-0.1,2.1,0.7l2,4.5c0.2,0.5,0.2,1-0.1,1.5
	C73.9,59.5,73.4,59.7,72.9,59.7z"/>
<g>
	<circle class="st9" cx="42.5" cy="78.7" r="2.7"/>
	<path class="st10" d="M40.6,76.9c-1,1-1,2.7,0,3.8l3.8-3.8C43.3,75.8,41.6,75.8,40.6,76.9z"/>
	<circle class="st9" cx="86.9" cy="78.7" r="2.7"/>
	<path class="st10" d="M85,76.9c-1,1-1,2.7,0,3.8l3.8-3.8C87.7,75.8,86,75.8,85,76.9z"/>
</g>
<path class="st4" d="M14,120.2c-0.2-2-2-3.3-4-3.1c-3,0.4-5.7,1.9-7.6,4.3c-1.9,2.4-2.7,5.4-2.3,8.5c0.3,2.7,1.6,5.1,3.6,7
	c0.6,0.5,1.3,0.9,2.1,0.9c0.1,0,0.2,0,0.3,0c1,0,1.9-0.4,2.6-1.1c0.6-0.7,1-1.6,0.9-2.6c0-1-0.4-1.8-1.1-2.5
	c-0.5-0.5-1.2-1.4-1.4-2.6c-0.1-1.1,0.2-2.3,0.9-3.2c0.7-0.9,1.7-1.5,2.9-1.6C12.9,123.9,14.3,122.1,14,120.2z"/>
<circle class="st13" cx="62.7" cy="5.4" r="3"/>
</svg>
