<?xml version="1.0" encoding="utf-8"?>
<!-- Generator: Adobe Illustrator 19.1.0, SVG Export Plug-In . SVG Version: 6.00 Build 0)  -->
<svg version="1.1" id="レイヤー_1" xmlns="http://www.w3.org/2000/svg" xmlns:xlink="http://www.w3.org/1999/xlink" x="0px"
	 y="0px" width="180px" height="180px" viewBox="75 -75 180 180" style="enable-background:new 75 -75 180 180;"
	 xml:space="preserve">
<style type="text/css">
	.st0{fill:#25B7C0;}
	.st1{fill:none;}
	.st2{fill:#DDDDDD;}
	.st3{fill:#026466;}
	.st4{fill:#025151;}
</style>
<g>
	<path class="st0" d="M165-75c49.7,0,90,40.3,90,90s-40.3,90-90,90S75,64.7,75,15S115.3-75,165-75z"/>
	<path class="st1" d="z"/>
</g>
<path class="st2" d="M162.6,32.6l-17-16.8l-19.8,9.9l-7.5,29.7c0.8,0.8,0.2,0.2,1.2,1.2l9.5-9.5c-0.6-1.6-0.2-3.4,1-4.6
	c1.8-1.8,4.6-1.8,6.3,0c1.8,1.8,1.8,4.6,0,6.3c-1.2,1.2-3,1.6-4.6,1l-9.5,9.5c0.8,0.8,0.4,0.4,1,1l29.3-8.1L162.6,32.6z"/>
<g>
	<path class="st1" d="M135.1,41.5"/>
</g>
<g>
	<path class="st1" d="M115.9,62.9"/>
</g>
<path class="st3" d="M149,7.9l21,21c0.8,0.8,0.8,2,0,2.8l-4.2,4.2c-0.8,0.8-2,0.8-2.8,0l-21-21c-0.8-0.8-0.8-2,0-2.8l4.2-4.2
	C147,7.1,148.2,7.1,149,7.9z"/>
<path class="st4" d="M202.8-33.9l9.9,9.9c0.8,0.8,0.8,2,0,2.8l-46.1,47.5l-15-15L200-34.1C200.8-34.7,202-34.7,202.8-33.9z"/>
</svg>
