<svg xmlns="http://www.w3.org/2000/svg" xmlns:xlink="http://www.w3.org/1999/xlink" preserveAspectRatio="xMidYMid" width="22" height="18" viewBox="0 0 22 18">
  <defs>
    <style>
      .cls-1 {
        fill: #fff;
        fill-rule: evenodd;
      }
    </style>
  </defs>
  <path d="M21.997,2.130 L21.997,2.130 L21.997,2.130 M15.230,-0.000 C12.737,-0.000 10.716,2.034 10.716,4.543 C10.716,4.899 10.756,5.245 10.833,5.578 C7.082,5.389 3.757,3.580 1.531,0.831 C1.143,1.502 0.920,2.283 0.920,3.115 C0.920,4.692 1.717,6.082 2.928,6.897 C2.188,6.873 1.492,6.669 0.884,6.329 C0.883,6.348 0.883,6.367 0.883,6.386 C0.883,8.587 2.439,10.423 4.504,10.840 C4.125,10.944 3.726,11.000 3.315,11.000 C3.024,11.000 2.741,10.971 2.465,10.918 C3.040,12.723 4.706,14.037 6.681,14.073 C5.137,15.292 3.191,16.018 1.076,16.018 C0.712,16.018 0.353,15.997 -0.000,15.955 C1.997,17.244 4.369,17.996 6.918,17.996 C15.219,17.996 19.758,11.073 19.758,5.070 C19.758,4.873 19.754,4.677 19.745,4.482 C20.627,3.841 21.392,3.041 21.997,2.130 C21.188,2.491 20.318,2.736 19.405,2.846 C20.337,2.283 21.053,1.393 21.389,0.332 C20.518,0.853 19.552,1.231 18.524,1.434 C17.700,0.551 16.528,-0.000 15.230,-0.000 " class="cls-1"/>
</svg>
