<?xml version="1.0" encoding="utf-8"?>
<!-- Generator: Adobe Illustrator 19.1.0, SVG Export Plug-In . SVG Version: 6.00 Build 0)  -->
<svg version="1.1" id="レイヤー_1" xmlns="http://www.w3.org/2000/svg" xmlns:xlink="http://www.w3.org/1999/xlink" x="0px"
	 y="0px" width="180px" height="180px" viewBox="75 -75 180 180" style="enable-background:new 75 -75 180 180;"
	 xml:space="preserve">
<style type="text/css">
	.st0{fill:#25B7C0;}
	.st1{fill:none;}
	.st2{fill:#DDDDDD;}
	.st3{fill:#FFFFFF;}
	.st4{fill:#036D76;}
	.st5{fill:#637172;}
</style>
<g>
	<path class="st0" d="M165-75c49.7,0,90,40.3,90,90s-40.3,90-90,90S75,64.7,75,15S115.3-75,165-75z"/>
	<path class="st1" d="z"/>
</g>
<path class="st2" d="M215.5,0.4h-99v-17.8c0-3.4,2.6-5.9,5.9-5.9h87.1c3.4,0,5.9,2.6,5.9,5.9V0.4z"/>
<path class="st3" d="M209.6,53.9h-87.1c-3.4,0-5.9-2.6-5.9-5.9V0.4h99V48C215.5,51.3,212.9,53.9,209.6,53.9z"/>
<circle class="st4" cx="128.4" cy="-11.4" r="4"/>
<circle class="st4" cx="140.3" cy="-11.4" r="4"/>
<circle class="st4" cx="152.1" cy="-11.4" r="4"/>
<g>
	<polygon class="st5" points="151.5,14.3 142.2,26 151.5,37.5 155.9,34.1 149.4,26 155.9,17.7 	"/>
	<polygon class="st5" points="179.5,14.3 175.3,17.9 182,26 175.3,33.9 179.5,37.5 189.4,26 	"/>
	
		<rect x="162.8" y="13.9" transform="matrix(0.9238 0.3828 -0.3828 0.9238 22.5583 -61.4215)" class="st5" width="5.5" height="24.2"/>
</g>
</svg>
