<?xml version="1.0" encoding="utf-8"?>
<!-- Generator: Adobe Illustrator 19.1.0, SVG Export Plug-In . SVG Version: 6.00 Build 0)  -->
<svg version="1.1" id="レイヤー_1" xmlns="http://www.w3.org/2000/svg" xmlns:xlink="http://www.w3.org/1999/xlink" x="0px"
	 y="0px" width="180px" height="180px" viewBox="75 -75 180 180" style="enable-background:new 75 -75 180 180;"
	 xml:space="preserve">
<style type="text/css">
	.st0{fill:#25B7C0;}
	.st1{fill:none;}
	.st2{fill:#DDDDDD;}
</style>
<g>
	<path class="st0" d="M165-75c49.7,0,90,40.3,90,90s-40.3,90-90,90S75,64.7,75,15S115.3-75,165-75z"/>
	<path class="st1" d="z"/>
</g>
<path class="st2" d="M209.9,9.5l-6.2-1.4c-0.4,0-0.6-0.4-0.6-0.8c-0.4-1.8-0.8-3.6-1.4-5.4c-0.2-0.4,0-0.8,0.2-1l4.8-4.4
	c0.4-0.2,0.4-0.8,0.2-1.2l-4-7c-0.2-0.4-0.6-0.6-1-0.4l-6.2,2c-0.4,0.2-0.8,0-1-0.2c-1.2-1.4-2.6-2.8-4-4c-0.6,0-0.6-0.4-0.6-0.8
	l2-6.2c0.2-0.4,0-0.8-0.4-1l-7-4c-0.4-0.2-0.8-0.2-1.2,0.2l-4.4,4.8c-0.2,0.2-0.6,0.4-1,0.2c-1.8-0.6-3.6-1.2-5.6-1.4
	c-0.2,0-0.6-0.2-0.6-0.6l-1.4-5.4c0-0.4-0.4-0.6-0.8-0.6h-8.2c-0.4,0-0.6,0.2-0.8,0.6l-1.4,5.4c0,0.2-0.2,0.6-0.6,0.6
	c-1.8,0.4-3.8,0.8-5.6,1.4c-0.4,0.2-0.8,0-1-0.2l-4-4.8c-0.2-0.4-0.8-0.4-1.2-0.2l-7,4c-0.4,0.2-0.6,0.6-0.4,1l2,6.2
	c0.2,0.4,0,0.8-0.2,1c-1.4,1.2-2.8,2.6-4,4c-0.2,0.2-0.6,0.4-1,0.2l-6.2-2c-0.4-0.2-0.8,0-1,0.4l-4,7c-0.2,0.4-0.2,0.8,0.2,1.2
	l4.8,4.2c0.2,0.2,0.4,0.6,0.2,1c-0.6,1.8-1.2,3.6-1.4,5.4c0,0.4-0.4,0.6-0.6,0.8l-6.2,1.4c-0.4,0-0.8,0.4-0.8,0.8v8
	c0,0.4,0.2,0.8,0.8,0.8l6.2,1.4c0.4,0,0.6,0.4,0.6,0.8c0.4,1.8,0.8,3.6,1.4,5.4c0.2,0.4,0,0.8-0.2,1l-4.8,4.4
	c-0.4,0.2-0.4,0.8-0.2,1.2l4,7c0.2,0.4,0.6,0.6,1,0.4l6.2-2c0.4-0.2,0.8,0,1,0.2c1.2,1.4,2.6,2.8,4,4c0.2,0.2,0.4,0.6,0.2,1l-2,6.2
	c-0.2,0.4,0,0.8,0.4,1l7,4c0.4,0.2,0.8,0.2,1.2-0.2l4.4-4.8c0.2-0.2,0.6-0.4,1-0.2c1.8,0.6,3.6,1.2,5.4,1.4c0.4,0,0.6,0.4,0.8,0.6
	l1.4,6.2c0,0.4,0.4,0.8,0.8,0.8h8c0.4,0,0.8-0.2,0.8-0.8l1.4-6.2c0-0.4,0.4-0.6,0.8-0.6c1.8-0.4,3.6-0.8,5.4-1.4
	c0.4-0.2,0.8,0,1,0.2l4.4,4.8c0.2,0.4,0.8,0.4,1.2,0.2l7-4c0.4-0.2,0.6-0.6,0.4-1l-2-6.2c-0.2-0.4,0-0.8,0.2-1c1.4-1.2,2.8-2.6,4-4
	c0.2-0.2,0.6-0.4,1-0.2l6.2,2c0.4,0.2,0.8,0,1-0.4l4-7c0.2-0.4,0.2-0.8-0.2-1.2l-4.8-4.4c-0.2-0.2-0.4-0.6-0.2-1
	c0.6-1.8,1.2-3.6,1.4-5.4c0-0.4,0.4-0.6,0.6-0.8l6.2-1.4c0.4,0,0.8-0.4,0.8-0.8v-8C210.5,9.9,210.3,9.5,209.9,9.5z M165.9,30.9
	c-8.8,0-16-7.2-16-16s7.2-16,16-16c8.8,0,16,7.2,16,16S174.7,30.9,165.9,30.9z"/>
</svg>
