<?xml version="1.0" encoding="utf-8"?>
<!-- Generator: Adobe Illustrator 19.1.0, SVG Export Plug-In . SVG Version: 6.00 Build 0)  -->
<svg version="1.1" id="レイヤー_1" xmlns="http://www.w3.org/2000/svg" xmlns:xlink="http://www.w3.org/1999/xlink" x="0px"
	 y="0px" width="379px" height="462px" viewBox="0 0 379 462" style="enable-background:new 0 0 379 462;" xml:space="preserve">
<style type="text/css">
	.st0{fill:#CAE685;}
	.st1{fill:#3ABFBF;}
	.st2{fill:#25AEB5;}
	.st3{fill:#025151;}
	.st4{fill:#026466;}
	.st5{opacity:0.8;fill:#E5E5E5;}
	.st6{fill:#E5E5E5;}
	.st7{fill:#3F4B4C;}
	.st8{fill:#FFFFFF;}
	.st9{fill:#CCCCCC;}
	.st10{fill:#CCAF9A;}
	.st11{fill:#B59272;}
	.st12{fill:#637172;}
	.st13{opacity:0.8;}
	.st14{fill:#036D76;}
	.st15{fill:#002024;}
	.st16{fill:#2AACB4;}
	.st17{fill:#DDDDDD;}
	.st18{fill:none;}
</style>
<rect x="53" y="253.5" transform="matrix(0.9903 -0.1392 0.1392 0.9903 -38.8754 10.9698)" class="st0" width="12" height="60"/>
<g>
	<path class="st1" d="M80,1.3c-27.6,0-50,22.4-50,50c0,25.3,18.7,46.1,43.1,49.5L80,108l6.9-7.2c24.3-3.4,43.1-24.3,43.1-49.5
		C130,23.7,107.6,1.3,80,1.3z"/>
	<path class="st1" d="M194,1.3c-27.6,0-50,22.4-50,50c0,25.3,18.7,46.1,43.1,49.5l6.9,7.2l6.9-7.2c24.3-3.4,43.1-24.3,43.1-49.5
		C244,23.7,221.6,1.3,194,1.3z"/>
	<path class="st1" d="M358,51.3c0-27.6-22.4-50-50-50s-50,22.4-50,50c0,25.3,18.7,46.1,43.1,49.5l6.9,7.2l6.9-7.2
		C339.3,97.5,358,76.6,358,51.3z"/>
</g>
<path class="st2" d="M335,313L335,313c-1.7,0-3-1.3-3-3v-37c0-1.7,1.3-3,3-3l0,0c1.7,0,3,1.3,3,3v37C338,311.7,336.7,313,335,313z"
	/>
<path class="st0" d="M352,262h-1l-2,7v43c0,0.6,0.4,1,1,1h3c0.6,0,1-0.4,1-1v-43L352,262z"/>
<path class="st3" d="M345,313h-3c-0.6,0-1-0.4-1-1v-41h5v41C346,312.6,345.6,313,345,313z"/>
<path class="st4" d="M347,274h-7v-10c0-1.1,0.9-2,2-2h3c1.1,0,2,0.9,2,2V274z"/>
<rect x="328.8" y="283" class="st5" width="28" height="30"/>
<path class="st6" d="M293,284H87c-5.5,0-10-4.5-10-10V135c0-5.5,4.5-10,10-10h206c5.5,0,10,4.5,10,10v139
	C303,279.5,298.5,284,293,284z"/>
<path class="st7" d="M87,124h206c5.5,0,10,4.5,10,10v124H77V134C77,128.5,81.5,124,87,124z"/>
<rect x="92" y="139" class="st8" width="196" height="104"/>
<polygon class="st9" points="221,305 159,305 161,284 219,284 "/>
<path class="st6" d="M230,313h-80c-0.6,0-1-0.4-1-1v-6c0-0.6,0.4-1,1-1h80c0.6,0,1,0.4,1,1v6C231,312.6,230.6,313,230,313z"/>
<rect y="313" class="st10" width="380" height="30"/>
<g>
	<rect x="34" y="343" class="st11" width="24" height="119"/>
	<rect x="322" y="343" class="st11" width="25" height="119"/>
</g>
<path class="st7" d="M317,313h-20c-2.8,0-5-2.2-5-5v-40c0-2.8,2.2-5,5-5h20c2.8,0,5,2.2,5,5v40C322,310.8,319.8,313,317,313z"/>
<rect x="297" y="269" class="st12" width="20" height="34"/>
<path class="st3" d="M105,307.5H92.5c-3.6,0-6.5-2.9-6.5-6.5v-6c0-3.6,2.9-6.5,6.5-6.5H105V307.5z M92.5,293.5
	c-0.8,0-1.5,0.7-1.5,1.5v6c0,0.8,0.7,1.5,1.5,1.5h7.5v-9H92.5z"/>
<polygon class="st3" points="123.5,313 95.5,313 93.5,281 125.5,281 "/>
<path class="st12" d="M310,309h-6c-0.6,0-1-0.4-1-1v-1c0-0.6,0.4-1,1-1h6c0.6,0,1,0.4,1,1v1C311,308.6,310.6,309,310,309z"/>
<g class="st13">
	<polygon class="st14" points="156.7,219 190,161.3 195.3,170.4 167.2,219 	"/>
	<polygon class="st15" points="169.6,219 190,183.7 195.3,192.8 185.4,209.9 194.6,209.9 191.2,204 196.5,194.9 210.4,219 	"/>
	<polygon class="st16" points="212.8,219 191.2,181.6 196.5,172.5 223.3,219 	"/>
</g>
<path class="st17" d="M219,45h-50v-9c0-1.7,1.3-3,3-3h44c1.7,0,3,1.3,3,3V45z"/>
<path class="st8" d="M216,71h-44c-1.7,0-3-1.3-3-3V44h50v24C219,69.7,217.7,71,216,71z"/>
<circle class="st14" cx="175" cy="38.3" r="2"/>
<circle class="st14" cx="181" cy="38.3" r="2"/>
<circle class="st14" cx="187" cy="38.3" r="2"/>
<g>
	<polygon class="st12" points="186.7,51.3 182,57.2 186.7,63 188.9,61.3 185.6,57.2 188.9,53 	"/>
	<polygon class="st12" points="200.8,51.3 198.7,53.1 202.1,57.2 198.7,61.2 200.8,63 205.8,57.2 	"/>
	
		<rect x="192.5" y="51" transform="matrix(-0.9238 -0.3828 0.3828 -0.9238 351.0719 184.1585)" class="st12" width="2.8" height="12.2"/>
</g>
<path class="st17" d="M330.3,53.1v-4c0-0.2-0.1-0.4-0.4-0.4l-3.1-0.7c-0.2,0-0.3-0.2-0.3-0.4c-0.2-0.9-0.4-1.8-0.7-2.7
	c-0.1-0.2,0-0.4,0.1-0.5l2.4-2.2c0.2-0.1,0.2-0.4,0.1-0.6l-2-3.5c-0.1-0.2-0.3-0.3-0.5-0.2l-3.1,1c-0.2,0.1-0.4,0-0.5-0.1
	c-0.6-0.7-1.3-1.4-2-2c-0.1-0.1-0.2-0.3-0.1-0.5l1-3.1c0.1-0.2,0-0.4-0.2-0.5l-3.5-2c-0.2-0.1-0.4-0.1-0.6,0.1l-2.2,2.4
	c-0.1,0.1-0.3,0.2-0.5,0.1c-0.9-0.3-1.8-0.6-2.8-0.7c-0.1,0-0.3-0.1-0.3-0.3l-0.7-2.7c0-0.2-0.2-0.3-0.4-0.3h-4.1
	c-0.2,0-0.3,0.1-0.4,0.3l-0.7,2.7c0,0.1-0.1,0.3-0.3,0.3c-0.9,0.2-1.9,0.4-2.8,0.7c-0.2,0.1-0.4,0-0.5-0.1l-2.2-2.4
	c-0.1-0.2-0.4-0.2-0.6-0.1l-3.5,2c-0.2,0.1-0.3,0.3-0.2,0.5l1,3.1c0.1,0.2,0,0.4-0.1,0.5c-0.7,0.6-1.4,1.3-2,2
	c-0.1,0.1-0.3,0.2-0.5,0.1l-3.1-1c-0.2-0.1-0.4,0-0.5,0.2l-2,3.5c-0.1,0.2-0.1,0.4,0.1,0.6l2.4,2.2c0.1,0.1,0.2,0.3,0.1,0.5
	c-0.3,0.9-0.6,1.8-0.7,2.7c0,0.2-0.2,0.3-0.3,0.4l-3.1,0.7c-0.2,0-0.4,0.2-0.4,0.4v4c0,0.2,0.1,0.4,0.4,0.4l3.1,0.7
	c0.2,0,0.3,0.2,0.3,0.4c0.2,0.9,0.4,1.8,0.7,2.7c0.1,0.2,0,0.4-0.1,0.5l-2.4,2.2c-0.2,0.1-0.2,0.4-0.1,0.6l2,3.5
	c0.1,0.2,0.3,0.3,0.5,0.2l3.1-1c0.2-0.1,0.4,0,0.5,0.1c0.6,0.7,1.3,1.4,2,2c0.1,0.1,0.2,0.3,0.1,0.5l-1,3.1c-0.1,0.2,0,0.4,0.2,0.5
	l3.5,2c0.2,0.1,0.4,0.1,0.6-0.1l2.2-2.4c0.1-0.1,0.3-0.2,0.5-0.1c0.9,0.3,1.8,0.6,2.7,0.7c0.2,0,0.3,0.2,0.4,0.3l0.7,3.1
	c0,0.2,0.2,0.4,0.4,0.4h4c0.2,0,0.4-0.1,0.4-0.4l0.7-3.1c0-0.2,0.2-0.3,0.4-0.3c0.9-0.2,1.8-0.4,2.7-0.7c0.2-0.1,0.4,0,0.5,0.1
	l2.2,2.4c0.1,0.2,0.4,0.2,0.6,0.1l3.5-2c0.2-0.1,0.3-0.3,0.2-0.5l-1-3.1c-0.1-0.2,0-0.4,0.1-0.5c0.7-0.6,1.4-1.3,2-2
	c0.1-0.1,0.3-0.2,0.5-0.1l3.1,1c0.2,0.1,0.4,0,0.5-0.2l2-3.5c0.1-0.2,0.1-0.4-0.1-0.6l-2.4-2.2c-0.1-0.1-0.2-0.3-0.1-0.5
	c0.3-0.9,0.6-1.8,0.7-2.7c0-0.2,0.2-0.3,0.3-0.4l3.1-0.7C330.2,53.5,330.3,53.3,330.3,53.1z"/>
<circle class="st1" cx="308" cy="51.3" r="8"/>
<rect x="25" y="253" class="st3" width="12" height="60"/>
<rect x="19" y="271" class="st9" width="6" height="42"/>
<rect x="68" y="271" class="st9" width="6" height="42"/>
<rect x="37" y="253" class="st2" width="12" height="60"/>
<path class="st17" d="M78.6,64.5L70,56l-10,5.1l-3.9,13.8c0.4,0.4,0.9,0.9,1.4,1.4l4.2-4.2c-0.3-0.8-0.1-1.7,0.5-2.3
	c0.9-0.9,2.3-0.9,3.2,0c0.9,0.9,0.9,2.3,0,3.2c-0.6,0.6-1.5,0.8-2.3,0.5L59,77.7c0.4,0.4,0.8,0.8,1.1,1.1l13.4-4.3L78.6,64.5z"/>
<g>
	<path class="st18" d="M59,54"/>
</g>
<polygon class="st3" points="98.2,30.2 104.6,36.6 81.6,62.2 72.4,53 "/>
<rect x="66.8" y="56.6" transform="matrix(-0.7071 -0.7071 0.7071 -0.7071 86.7152 154.0768)" class="st4" width="17" height="5"/>
</svg>
