<?xml version="1.0" encoding="utf-8"?>
<!-- Generator: Adobe Illustrator 19.1.0, SVG Export Plug-In . SVG Version: 6.00 Build 0)  -->
<svg version="1.1" id="レイヤー_1" xmlns="http://www.w3.org/2000/svg" xmlns:xlink="http://www.w3.org/1999/xlink" x="0px"
	 y="0px" width="50px" height="50px" viewBox="10 -10 50 50" style="enable-background:new 10 -10 50 50;" xml:space="preserve">
<style type="text/css">
	.st0{fill:#FFFFFF;}
	.st1{fill:#25B7C0;}
</style>
<g>
	<path class="st0" d="M35-10c13.8,0,25,11.2,25,25S48.8,40,35,40S10,28.8,10,15S21.2-10,35-10z"/>
	<path class="st1" d="M42.1,16c0,0.4-0.2,0.8-0.5,1.1c-0.6,0.6-1.6,0.6-2.3,0l-4.3-4l-4.3,4c-0.6,0.6-1.6,0.6-2.3,0
		c-0.6-0.6-0.6-1.5,0-2.1l5.4-5c0.6-0.6,1.6-0.6,2.3,0l5.4,5C41.9,15.3,42.1,15.7,42.1,16z"/>
</g>
</svg>
